# xmcd CD database file
#
# Track frame offsets:
#	150
#	18819
#	37536
#	58078
#	79910
#	96822
#	115539
#	133771
#	149115
#	169170
#	189290
#
# Disc length: 2778 seconds
#
# Revision: 0
# Processed by: cddbd v1.5.2PL0 Copyright (c) Steve Scherf et al.
# Submitted via: CDex 1.51
#
DISCID=890ad80b
DTITLE=Merengue - Music from the Caribbean - Merengue
DYEAR=2002
DGENRE=Merengue
TTITLE0=Me quede con las Ganas (Juanchy Vasques)
TTITLE1=Me tine loco (Cico Che)
TTITLE2=Sabrosa que esta (Los Sabrosos del Merengue)
TTITLE3=Ay mujer (Edy Herrera)
TTITLE4=Cachondeando (Dariana)
TTITLE5=Y que puedo hacer (LIMI-T 21)
TTITLE6=El heavy (Benny Cepeda)
TTITLE7=La faldita (Charlie Rodriguez)
TTITLE8=Me gusto (Josie Esteban)
TTITLE9=Mi niña (LIMI-T 21)
TTITLE10=Caramelito (Caramelo Girls)
EXTD=YEAR: 2002
EXTT0=
EXTT1=
EXTT2=
EXTT3=
EXTT4=
EXTT5=
EXTT6=
EXTT7=
EXTT8=
EXTT9=
EXTT10=
PLAYORDER=
